<svg width="52" height="52" viewBox="0 0 52 52" fill="none" xmlns="http://www.w3.org/2000/svg">
<path d="M45.24 6.71451C43.6518 5.12634 41.7408 4.33334 39.5048 4.33334H12.4497C10.2137 4.33334 8.30268 5.12634 6.71451 6.71451C5.12634 8.30268 4.33334 10.2137 4.33334 12.4497V39.5048C4.33334 41.7408 5.12634 43.6518 6.71451 45.24C8.30268 46.8282 10.2137 47.6212 12.4497 47.6212H18.7633C19.175 47.6212 19.4848 47.606 19.6928 47.5778C19.9348 47.5293 20.1533 47.4003 20.3125 47.2117C20.5183 46.995 20.6223 46.6808 20.6223 46.2692L20.6072 44.3517C20.5985 43.1297 20.5942 42.1633 20.5942 41.4483L19.9442 41.561C19.5325 41.6368 19.0125 41.6693 18.382 41.6607C17.7248 41.6486 17.0698 41.5826 16.4233 41.4635C15.7352 41.3365 15.0874 41.0467 14.534 40.6185C13.9544 40.18 13.5221 39.5754 13.2947 38.8852L13.013 38.2352C12.7756 37.7224 12.4773 37.2401 12.1247 36.7987C11.7217 36.2722 11.3122 35.9168 10.8983 35.7283L10.7033 35.5875C10.5674 35.4901 10.4437 35.3766 10.335 35.2495C10.2312 35.1315 10.1458 34.9986 10.0815 34.8552C10.0252 34.723 10.0728 34.6147 10.2223 34.5302C10.374 34.4435 10.6448 34.4023 11.0413 34.4023L11.6047 34.489C11.9795 34.5627 12.4453 34.788 12.9978 35.1628C13.557 35.544 14.024 36.0451 14.365 36.6297C14.7983 37.3988 15.3183 37.986 15.9293 38.3912C16.5403 38.7942 17.1557 38.9978 17.7753 38.9978C18.395 38.9978 18.9302 38.9502 19.383 38.857C19.8209 38.7665 20.2464 38.6239 20.6505 38.4323C20.8195 37.1757 21.2788 36.205 22.0307 35.529C21.0565 35.4335 20.091 35.264 19.1425 35.022C18.2169 34.7677 17.3267 34.3987 16.4927 33.9235C15.62 33.4484 14.8493 32.8065 14.2242 32.0342C13.624 31.2823 13.13 30.2965 12.7443 29.0767C12.3608 27.8547 12.168 26.4442 12.168 24.8473C12.168 22.5745 12.909 20.6397 14.3932 19.0407C13.6998 17.3333 13.7648 15.4158 14.5903 13.2947C15.1363 13.1235 15.9445 13.2513 17.0148 13.6738C18.0852 14.0963 18.8695 14.4582 19.3678 14.7572C19.8662 15.0605 20.2648 15.314 20.566 15.5198C22.3275 15.0296 24.1478 14.7832 25.9762 14.7875C27.8373 14.7875 29.64 15.0323 31.3885 15.5198L32.4588 14.8438C33.2821 14.3495 34.1505 13.9345 35.0523 13.6045C36.049 13.2275 36.8073 13.1257 37.336 13.2947C38.181 15.418 38.2547 17.3333 37.5592 19.0428C39.0433 20.6397 39.7865 22.5745 39.7865 24.8495C39.7865 26.4463 39.5937 27.8612 39.208 29.0897C38.8245 30.3203 38.3262 31.3062 37.7152 32.0493C37.1042 32.7925 36.3437 33.4143 35.4337 33.9235C34.5237 34.4305 33.6397 34.7967 32.7838 35.022C31.8354 35.2648 30.8699 35.435 29.8957 35.5312C30.8707 36.3762 31.3603 37.7087 31.3603 39.5308V46.2692C31.3603 46.5877 31.4058 46.8455 31.5012 47.0427C31.545 47.1377 31.6075 47.2229 31.6849 47.2932C31.7623 47.3636 31.8531 47.4176 31.9518 47.4522C32.1598 47.5258 32.3418 47.5735 32.5022 47.5908C32.6625 47.6125 32.8922 47.619 33.1912 47.619H39.5048C41.7408 47.619 43.6518 46.826 45.24 45.2378C46.826 43.6518 47.6212 41.7387 47.6212 39.5027V12.4497C47.6212 10.2137 46.826 8.30268 45.2378 6.71451H45.24Z" fill="#B9BC1D"/>
</svg>
