<svg width="52" height="52" viewBox="0 0 52 52" fill="none" xmlns="http://www.w3.org/2000/svg">
<path d="M43.3333 6.5H8.66667C8.09203 6.5 7.54093 6.72827 7.1346 7.1346C6.72827 7.54093 6.5 8.09203 6.5 8.66667V43.3333C6.5 43.908 6.72827 44.4591 7.1346 44.8654C7.54093 45.2717 8.09203 45.5 8.66667 45.5H43.3333C43.908 45.5 44.4591 45.2717 44.8654 44.8654C45.2717 44.4591 45.5 43.908 45.5 43.3333V8.66667C45.5 8.09203 45.2717 7.54093 44.8654 7.1346C44.4591 6.72827 43.908 6.5 43.3333 6.5V6.5ZM18.0678 39.7302H12.2785V21.1185H18.0678V39.7302ZM15.1732 18.577C14.2836 18.577 13.4305 18.2236 12.8015 17.5946C12.1725 16.9656 11.8192 16.1125 11.8192 15.223C11.8192 14.3335 12.1725 13.4804 12.8015 12.8514C13.4305 12.2224 14.2836 11.869 15.1732 11.869C16.0627 11.869 16.9158 12.2224 17.5448 12.8514C18.1738 13.4804 18.5272 14.3335 18.5272 15.223C18.5272 16.1125 18.1738 16.9656 17.5448 17.5946C16.9158 18.2236 16.0627 18.577 15.1732 18.577V18.577ZM39.7323 39.7302H33.9495V30.68C33.9495 28.522 33.9105 25.7465 30.9422 25.7465C27.9305 25.7465 27.4733 28.0995 27.4733 30.5283V39.7323H21.6948V21.1207H27.2415V23.6643H27.3217C28.0908 22.2018 29.9802 20.6592 32.7903 20.6592C38.649 20.6592 39.7302 24.5115 39.7302 29.5252V39.7302H39.7323Z" fill="#B9BC1D"/>
</svg>
