<svg width="81" height="31" viewBox="0 0 81 31" fill="none" xmlns="http://www.w3.org/2000/svg">
<rect x="2.5" y="2.5" width="76" height="26" rx="13" stroke="#B9BC1D" stroke-width="5"/>
<path d="M8.92266 22.4609C8.93828 22.3359 8.95391 22.1328 8.96953 21.8516C9.00078 21.5703 9.03203 21.2734 9.06328 20.9609C9.09453 20.6484 9.11797 20.3516 9.13359 20.0703C9.16484 19.7734 9.18047 19.5703 9.18047 19.4609C9.18047 19.2109 9.18047 18.8281 9.18047 18.3125C9.19609 17.7812 9.20391 17.1875 9.20391 16.5312V12.3594C9.20391 11.7031 9.19609 11.1172 9.18047 10.6016C9.18047 10.0703 9.18047 9.67188 9.18047 9.40625C9.24297 9.29688 9.29766 9.22656 9.34453 9.19531C9.39141 9.16406 9.46953 9.14844 9.57891 9.14844H9.74297C9.78984 9.17969 9.86797 9.23438 9.97734 9.3125C10.0867 9.375 10.1414 9.40625 10.1414 9.40625V21.5703C10.1883 21.5703 10.2664 21.5781 10.3758 21.5938C10.4852 21.6094 10.6023 21.625 10.7273 21.6406C10.868 21.6406 10.993 21.6406 11.1023 21.6406C11.2273 21.6406 11.3055 21.6406 11.3367 21.6406C11.5086 21.625 11.7586 21.5938 12.0867 21.5469C12.4305 21.5 12.8211 21.4531 13.2586 21.4062C13.6961 21.3594 14.1492 21.3125 14.618 21.2656C15.0867 21.2031 15.532 21.1484 15.9539 21.1016C16.3914 21.0391 16.7742 20.9844 17.1023 20.9375C17.4461 20.8906 17.7039 20.8516 17.8758 20.8203C18.0945 20.7109 18.282 20.6406 18.4383 20.6094C18.5945 20.5625 18.782 20.5391 19.0008 20.5391C19.2039 20.5391 19.3367 20.6094 19.3992 20.75C19.4773 20.8906 19.5164 21.0469 19.5164 21.2188C19.5164 21.3594 19.4852 21.4844 19.4227 21.5938C19.3758 21.6875 19.3133 21.7969 19.2352 21.9219C18.4383 21.8438 17.6336 21.8516 16.8211 21.9453C16.0242 22.0391 15.2273 22.1719 14.4305 22.3438C13.6336 22.5 12.8445 22.6484 12.0633 22.7891C11.282 22.9297 10.5086 23 9.74297 23C9.63359 23 9.48516 22.9375 9.29766 22.8125C9.11016 22.6875 8.98516 22.5703 8.92266 22.4609ZM19.5755 16.4844C19.6536 15.8438 19.7239 15.1953 19.7864 14.5391C19.8645 13.8672 19.9583 13.2109 20.0677 12.5703C20.177 11.9141 20.3255 11.2969 20.513 10.7188C20.7161 10.125 20.9895 9.61719 21.3333 9.19531C21.6927 8.75781 22.138 8.40625 22.6692 8.14062C23.2005 7.875 23.8567 7.74219 24.638 7.74219C25.2786 7.74219 25.8411 7.88281 26.3255 8.16406C26.8255 8.42969 27.2473 8.78906 27.5911 9.24219C27.9505 9.69531 28.2395 10.2188 28.4583 10.8125C28.677 11.3906 28.8489 11.9844 28.9739 12.5938C29.1145 13.2031 29.2161 13.8125 29.2786 14.4219C29.3411 15.0312 29.3723 15.5859 29.3723 16.0859C29.3723 16.9141 29.2395 17.7422 28.9739 18.5703C28.7083 19.3828 28.3255 20.125 27.8255 20.7969C27.3411 21.4531 26.7395 21.9922 26.0208 22.4141C25.3177 22.8203 24.513 23.0234 23.6067 23.0234C22.8255 23.0234 22.177 22.8125 21.6614 22.3906C21.1458 21.9688 20.7317 21.4453 20.4192 20.8203C20.1067 20.1797 19.888 19.4922 19.763 18.7578C19.638 18.0234 19.5755 17.3516 19.5755 16.7422V16.4844ZM20.3489 16.6953C20.3489 17.2422 20.4036 17.8438 20.513 18.5C20.6223 19.1406 20.8098 19.7344 21.0755 20.2812C21.3411 20.8281 21.7005 21.2891 22.1536 21.6641C22.6223 22.0234 23.2083 22.2031 23.9114 22.2031C24.7395 22.2031 25.4427 21.9922 26.0208 21.5703C26.6145 21.1484 27.0989 20.625 27.4739 20C27.8645 19.3594 28.1458 18.6641 28.3177 17.9141C28.4895 17.1641 28.5755 16.4609 28.5755 15.8047C28.5755 15.1953 28.5286 14.4766 28.4348 13.6484C28.3411 12.8047 28.1458 12.0078 27.8489 11.2578C27.5677 10.5078 27.1536 9.875 26.6067 9.35938C26.0755 8.82812 25.388 8.5625 24.5442 8.5625C23.9505 8.5625 23.4348 8.70312 22.9973 8.98438C22.5598 9.26562 22.1848 9.64062 21.8723 10.1094C21.5598 10.5625 21.302 11.0859 21.0989 11.6797C20.9114 12.2578 20.763 12.8516 20.6536 13.4609C20.5442 14.0547 20.4661 14.6406 20.4192 15.2188C20.3723 15.7812 20.3489 16.2734 20.3489 16.6953ZM39.697 20.9844C39.2752 21.2969 38.8611 21.5781 38.4548 21.8281C38.0486 22.0781 37.6267 22.2891 37.1892 22.4609C36.7673 22.6172 36.322 22.7344 35.8533 22.8125C35.4002 22.875 34.908 22.9062 34.3767 22.9062C33.5955 22.9062 32.9236 22.7734 32.3611 22.5078C31.7986 22.2422 31.3298 21.875 30.9548 21.4062C30.5955 20.9375 30.3298 20.3906 30.158 19.7656C29.9861 19.125 29.9002 18.4297 29.9002 17.6797C29.9002 16.8516 29.9705 15.9375 30.1111 14.9375C30.2517 13.9219 30.4783 12.9219 30.7908 11.9375C31.1189 10.9375 31.5408 10.0078 32.0564 9.14844C32.5877 8.28906 33.2361 7.60156 34.0017 7.08594C34.033 7.08594 34.072 7.08594 34.1189 7.08594C34.1814 7.08594 34.2283 7.08594 34.2595 7.08594C34.4158 7.08594 34.5486 7.11719 34.658 7.17969C34.7673 7.24219 34.822 7.35156 34.822 7.50781C34.822 7.53906 34.8142 7.57031 34.7986 7.60156C34.7986 7.63281 34.7986 7.65625 34.7986 7.67188C34.0955 8.28125 33.4861 8.96875 32.9705 9.73438C32.4705 10.5 32.0486 11.3125 31.7048 12.1719C31.3767 13.0156 31.1267 13.8984 30.9548 14.8203C30.7986 15.7266 30.7205 16.6484 30.7205 17.5859C30.7205 18.2266 30.7986 18.8203 30.9548 19.3672C31.1267 19.9141 31.3845 20.3906 31.7283 20.7969C32.072 21.2031 32.4939 21.5156 32.9939 21.7344C33.4939 21.9531 34.072 22.0625 34.7283 22.0625C34.8845 22.0625 35.1111 22.0312 35.408 21.9688C35.7205 21.9062 36.0642 21.8203 36.4392 21.7109C36.8142 21.6016 37.197 21.4688 37.5877 21.3125C37.9783 21.1406 38.322 20.9531 38.6189 20.75C38.9314 20.5469 39.1892 20.3281 39.3923 20.0938C39.5955 19.8594 39.697 19.6016 39.697 19.3203V14.8672C39.6502 14.8672 39.5486 14.8594 39.3923 14.8438C39.2361 14.8281 39.072 14.8125 38.9002 14.7969C38.7283 14.7656 38.5642 14.7422 38.408 14.7266C38.2517 14.7109 38.1423 14.7109 38.0798 14.7266C38.0017 14.7422 37.7517 14.7969 37.3298 14.8906C36.908 14.9688 36.4392 15.0703 35.9236 15.1953C35.408 15.3047 34.8923 15.4219 34.3767 15.5469C33.8611 15.6562 33.4627 15.7422 33.1814 15.8047C33.1502 15.8047 33.0955 15.8203 33.0173 15.8516C32.9392 15.8828 32.8533 15.9141 32.7595 15.9453C32.6814 15.9609 32.5955 15.9844 32.5017 16.0156C32.4236 16.0469 32.3767 16.0625 32.3611 16.0625C32.3298 16.0781 32.3064 16.0859 32.2908 16.0859H32.2205C32.0642 16.0859 31.9548 16.0078 31.8923 15.8516C31.8455 15.6797 31.822 15.5312 31.822 15.4062C31.822 15.3125 31.8377 15.2266 31.8689 15.1484C31.9158 15.0703 31.9939 15.0156 32.1033 14.9844L39.1814 13.625C39.2127 13.625 39.322 13.625 39.5095 13.625C39.697 13.625 39.8455 13.625 39.9548 13.625C40.033 13.625 40.1345 13.6172 40.2595 13.6016C40.3845 13.5859 40.5017 13.5859 40.6111 13.6016C40.7361 13.6172 40.8455 13.6641 40.9392 13.7422C41.033 13.8047 41.0798 13.9062 41.0798 14.0469V14.1641L40.7986 15.5234V24.9453C40.3298 24.9453 40.0564 24.7031 39.9783 24.2188C39.9627 24.0938 39.9392 23.875 39.908 23.5625C39.8767 23.2656 39.8455 22.9453 39.8142 22.6016C39.783 22.2422 39.7517 21.9141 39.7205 21.6172C39.7048 21.3203 39.697 21.1094 39.697 20.9844ZM41.4436 16.4844C41.5217 15.8438 41.592 15.1953 41.6545 14.5391C41.7327 13.8672 41.8264 13.2109 41.9358 12.5703C42.0452 11.9141 42.1936 11.2969 42.3811 10.7188C42.5842 10.125 42.8577 9.61719 43.2014 9.19531C43.5608 8.75781 44.0061 8.40625 44.5373 8.14062C45.0686 7.875 45.7248 7.74219 46.5061 7.74219C47.1467 7.74219 47.7092 7.88281 48.1936 8.16406C48.6936 8.42969 49.1155 8.78906 49.4592 9.24219C49.8186 9.69531 50.1077 10.2188 50.3264 10.8125C50.5452 11.3906 50.717 11.9844 50.842 12.5938C50.9827 13.2031 51.0842 13.8125 51.1467 14.4219C51.2092 15.0312 51.2405 15.5859 51.2405 16.0859C51.2405 16.9141 51.1077 17.7422 50.842 18.5703C50.5764 19.3828 50.1936 20.125 49.6936 20.7969C49.2092 21.4531 48.6077 21.9922 47.8889 22.4141C47.1858 22.8203 46.3811 23.0234 45.4748 23.0234C44.6936 23.0234 44.0452 22.8125 43.5295 22.3906C43.0139 21.9688 42.5998 21.4453 42.2873 20.8203C41.9748 20.1797 41.7561 19.4922 41.6311 18.7578C41.5061 18.0234 41.4436 17.3516 41.4436 16.7422V16.4844ZM42.217 16.6953C42.217 17.2422 42.2717 17.8438 42.3811 18.5C42.4905 19.1406 42.678 19.7344 42.9436 20.2812C43.2092 20.8281 43.5686 21.2891 44.0217 21.6641C44.4905 22.0234 45.0764 22.2031 45.7795 22.2031C46.6077 22.2031 47.3108 21.9922 47.8889 21.5703C48.4827 21.1484 48.967 20.625 49.342 20C49.7327 19.3594 50.0139 18.6641 50.1858 17.9141C50.3577 17.1641 50.4436 16.4609 50.4436 15.8047C50.4436 15.1953 50.3967 14.4766 50.303 13.6484C50.2092 12.8047 50.0139 12.0078 49.717 11.2578C49.4358 10.5078 49.0217 9.875 48.4748 9.35938C47.9436 8.82812 47.2561 8.5625 46.4123 8.5625C45.8186 8.5625 45.303 8.70312 44.8655 8.98438C44.428 9.26562 44.053 9.64062 43.7405 10.1094C43.428 10.5625 43.1702 11.0859 42.967 11.6797C42.7795 12.2578 42.6311 12.8516 42.5217 13.4609C42.4123 14.0547 42.3342 14.6406 42.2873 15.2188C42.2405 15.7812 42.217 16.2734 42.217 16.6953ZM52.6589 18.6641C52.6433 18.4141 52.612 18.0469 52.5652 17.5625C52.5183 17.0625 52.4636 16.5 52.4011 15.875C52.3542 15.25 52.2995 14.5938 52.237 13.9062C52.1902 13.2188 52.1355 12.5625 52.073 11.9375C52.0261 11.3125 51.9792 10.75 51.9323 10.25C51.8855 9.75 51.8542 9.38281 51.8386 9.14844C51.8386 9.11719 51.8308 9.03125 51.8152 8.89062C51.8152 8.73438 51.8152 8.63281 51.8152 8.58594H52.6589C52.6745 8.78906 52.6902 9.10938 52.7058 9.54688C52.737 9.96875 52.7683 10.4453 52.7995 10.9766C52.8464 11.5078 52.8855 12.0781 52.9167 12.6875C52.948 13.2812 52.9792 13.8438 53.0105 14.375C53.0573 14.9062 53.0964 15.3906 53.1277 15.8281C53.1589 16.25 53.1823 16.5625 53.198 16.7656C53.2448 17.2344 53.3152 17.7734 53.4089 18.3828C53.5183 18.9922 53.698 19.5625 53.948 20.0938C54.198 20.6094 54.5183 21.0469 54.9089 21.4062C55.2995 21.7656 55.7995 21.9453 56.4089 21.9453C56.9245 21.9453 57.3698 21.7812 57.7448 21.4531C58.1355 21.125 58.4636 20.7031 58.7292 20.1875C58.9948 19.6562 59.2058 19.0703 59.362 18.4297C59.5339 17.7891 59.6667 17.1641 59.7605 16.5547C59.8698 15.9297 59.9402 15.3594 59.9714 14.8438C60.0183 14.3125 60.0417 13.8984 60.0417 13.6016C60.0417 12.8203 59.9792 12.0859 59.8542 11.3984C59.7448 10.6953 59.6902 9.98438 59.6902 9.26562C59.6902 9.09375 59.7448 8.98438 59.8542 8.9375C59.9792 8.875 60.112 8.84375 60.2527 8.84375C60.2839 8.84375 60.3308 8.85156 60.3933 8.86719C60.4558 8.86719 60.5027 8.86719 60.5339 8.86719C60.6277 9.21094 60.6902 9.52344 60.7214 9.80469C60.7527 10.0703 60.7761 10.3281 60.7917 10.5781C60.823 10.8281 60.8386 11.0859 60.8386 11.3516V12.2188C60.8386 12.6719 60.823 13.2578 60.7917 13.9766C60.7761 14.6797 60.7214 15.4297 60.6277 16.2266C60.5339 17.0234 60.3855 17.8281 60.1823 18.6406C59.9948 19.4375 59.7292 20.1641 59.3855 20.8203C59.0573 21.4766 58.6277 22.0078 58.0964 22.4141C57.5808 22.8203 56.9558 23.0234 56.2214 23.0234C55.6745 23.0234 55.1902 22.8906 54.7683 22.625C54.3464 22.3438 53.987 21.9922 53.6902 21.5703C53.4089 21.1484 53.1745 20.6797 52.987 20.1641C52.8152 19.6484 52.7058 19.1484 52.6589 18.6641ZM67.8117 22.7891C67.7648 21.6953 67.7258 20.5625 67.6945 19.3906C67.6633 18.2188 67.6086 17.0391 67.5305 15.8516C67.468 14.6484 67.3664 13.4609 67.2258 12.2891C67.1008 11.1016 66.9367 9.96094 66.7336 8.86719C66.6711 8.61719 66.6164 8.46094 66.5695 8.39844C66.5227 8.33594 66.4055 8.30469 66.218 8.30469C65.843 8.30469 65.4836 8.36719 65.1398 8.49219C64.7961 8.60156 64.4445 8.72656 64.0852 8.86719C63.7414 9.00781 63.3977 9.14062 63.0539 9.26562C62.7102 9.375 62.343 9.42969 61.9523 9.42969C61.7492 9.42969 61.5852 9.39844 61.4602 9.33594C61.3352 9.25781 61.2727 9.10156 61.2727 8.86719C61.2727 8.75781 61.2805 8.64844 61.2961 8.53906C61.3273 8.42969 61.4211 8.36719 61.5773 8.35156L66.1711 7.22656C66.1398 6.88281 66.1633 6.66406 66.2414 6.57031C66.3352 6.46094 66.4836 6.40625 66.6867 6.40625C66.9523 6.40625 67.1789 6.46094 67.3664 6.57031C67.5539 6.66406 67.7883 6.71094 68.0695 6.71094C68.7727 6.71094 69.468 6.65625 70.1555 6.54688C70.843 6.42187 71.5305 6.28906 72.218 6.14844C72.9055 5.99219 73.5852 5.85937 74.257 5.75C74.9445 5.625 75.632 5.5625 76.3195 5.5625V5.79688C76.3195 5.90625 76.3117 6.02344 76.2961 6.14844C76.2961 6.27344 76.2648 6.39063 76.2023 6.5C76.1398 6.60937 76.0617 6.67188 75.968 6.6875C75.7961 6.70312 75.5383 6.73438 75.1945 6.78125C74.8664 6.8125 74.4836 6.85938 74.0461 6.92188C73.6242 6.96875 73.1789 7.02344 72.7102 7.08594C72.2414 7.13281 71.7883 7.1875 71.3508 7.25C70.9133 7.29688 70.5227 7.35156 70.1789 7.41406C69.8508 7.46094 69.6008 7.49219 69.4289 7.50781C69.2883 7.53906 69.1086 7.58594 68.8898 7.64844C68.6867 7.69531 68.4836 7.75 68.2805 7.8125C68.0773 7.85938 67.8977 7.90625 67.7414 7.95312C67.6008 8 67.5305 8.03125 67.5305 8.04688V8.35156L68.8898 22.4844V22.7891C68.8742 22.8203 68.8352 22.8594 68.7727 22.9062C68.7258 22.9375 68.6555 22.9688 68.5617 23C68.468 23.0156 68.3586 23.0156 68.2336 23C68.1086 22.9688 67.968 22.8984 67.8117 22.7891Z" fill="#B9BC1D"/>
</svg>
